<svg width="32" height="41" viewBox="0 0 32 41" fill="none" xmlns="http://www.w3.org/2000/svg">
<path d="M15.95 0C11.7213 0.00498868 7.6673 1.68703 4.67717 4.67716C1.68705 7.66728 0.00500565 11.7213 1.69692e-05 15.95C-0.00504772 19.4057 1.12374 22.7676 3.21322 25.52C3.21322 25.52 3.64822 26.0928 3.71927 26.1754L15.95 40.6L28.1866 26.1682C28.2504 26.0913 28.6868 25.52 28.6868 25.52L28.6883 25.5157C30.7767 22.7644 31.905 19.4041 31.9 15.95C31.895 11.7213 30.213 7.66728 27.2229 4.67716C24.2327 1.68703 20.1787 0.00498868 15.95 0V0ZM15.95 21.75C14.8029 21.75 13.6815 21.4098 12.7277 20.7725C11.7739 20.1352 11.0305 19.2294 10.5915 18.1696C10.1525 17.1098 10.0377 15.9436 10.2615 14.8185C10.4853 13.6934 11.0377 12.6599 11.8488 11.8488C12.6599 11.0376 13.6934 10.4852 14.8185 10.2614C15.9436 10.0377 17.1098 10.1525 18.1696 10.5915C19.2294 11.0305 20.1352 11.7739 20.7725 12.7277C21.4099 13.6815 21.75 14.8029 21.75 15.95C21.7481 17.4877 21.1364 18.9618 20.0491 20.0491C18.9618 21.1364 17.4877 21.7481 15.95 21.75V21.75Z" fill="white"/>
</svg>
