<svg width="42" height="42" viewBox="0 0 42 42" fill="none" xmlns="http://www.w3.org/2000/svg">
<path d="M34.7991 19.1979H38.2658C38.2658 10.3059 31.5526 3.59961 22.6484 3.59961V7.06628C29.6892 7.06628 34.7991 12.1675 34.7991 19.1979Z" fill="white"/>
<path d="M22.6649 14.0003C26.3101 14.0003 27.8649 15.5551 27.8649 19.2003H31.3315C31.3315 13.6103 28.2549 10.5336 22.6649 10.5336V14.0003ZM28.5963 23.4348C28.2633 23.1321 27.8256 22.9706 27.3757 22.9845C26.9259 22.9984 26.499 23.1866 26.1853 23.5093L22.0374 27.7751C21.039 27.5844 19.0318 26.9587 16.9657 24.8977C14.8995 22.8299 14.2738 20.8175 14.0883 19.826L18.3506 15.6764C18.6737 15.3629 18.8622 14.9359 18.8761 14.4859C18.89 14.0359 18.7283 13.5982 18.4251 13.2653L12.0205 6.22278C11.7172 5.88887 11.2957 5.68633 10.8455 5.65817C10.3954 5.63001 9.95191 5.77846 9.60941 6.07198L5.84808 9.29772C5.5484 9.59848 5.36954 9.99877 5.34541 10.4227C5.31941 10.856 4.82368 21.1208 12.7831 29.0837C19.7269 36.0257 28.4247 36.5336 30.8202 36.5336C31.1703 36.5336 31.3853 36.5232 31.4425 36.5197C31.8663 36.496 32.2664 36.3163 32.5657 36.0153L35.7897 32.2523C36.0834 31.91 36.2322 31.4667 36.2043 31.0165C36.1765 30.5663 35.9743 30.1447 35.6406 29.8412L28.5963 23.4348V23.4348Z" fill="white"/>
</svg>
